# xmcd
#
# Track frame offsets: 
#        150
#        18834
#        53936
#        72759
#        96044
#        112087
#        133896
#        158190
#        177229
#        202387
#        238857
#        266667
#
# Disc length: 3958 seconds
#
# Revision: 0
# Processed by: cddbd v1.5.2PL0 Copyright (c) Steve Scherf et al.
# Submitted via: ExactAudioCopy v0.95b4
#
DISCID=b20f740c
DTITLE=Eric Clapton and Steve Winwood - Live From Madison Square Garden 
DTITLE=[Disc 1]
DYEAR=1900
DGENRE=Blues
TTITLE0=Had to Cry Today
TTITLE1=Low Down
TTITLE2=Them Changes
TTITLE3=Forever Man
TTITLE4=Sleeping in the Ground
TTITLE5=Presence of The Lord
TTITLE6=Glad
TTITLE7=Well Alright
TTITLE8=Double Trouble
TTITLE9=Pearly Queen
TTITLE10=Tell The Truth
TTITLE11=No Face, No Name, No Number
EXTD=
EXTT0=
EXTT1=
EXTT2=
EXTT3=
EXTT4=
EXTT5=
EXTT6=
EXTT7=
EXTT8=
EXTT9=
EXTT10=
EXTT11=
PLAYORDER=
